<svg width="532" height="269" viewBox="0 0 532 269" fill="none" xmlns="http://www.w3.org/2000/svg">
<circle opacity="0.2" cx="2.5" cy="2.5" r="2.5" fill="#D9D9D9"/>
<circle opacity="0.2" cx="57.5" cy="2.5" r="2.5" fill="#D9D9D9"/>
<circle opacity="0.2" cx="112.5" cy="2.5" r="2.5" fill="#D9D9D9"/>
<circle opacity="0.2" cx="167.5" cy="2.5" r="2.5" fill="#D9D9D9"/>
<circle opacity="0.2" cx="222.5" cy="2.5" r="2.5" fill="#D9D9D9"/>
<circle opacity="0.2" cx="277.5" cy="2.5" r="2.5" fill="#D9D9D9"/>
<circle opacity="0.2" cx="332.5" cy="2.5" r="2.5" fill="#D9D9D9"/>
<circle opacity="0.2" cx="387.5" cy="2.5" r="2.5" fill="#D9D9D9"/>
<circle opacity="0.2" cx="442.5" cy="2.5" r="2.5" fill="#D9D9D9"/>
<circle opacity="0.2" cx="497.5" cy="2.5" r="2.5" fill="#D9D9D9"/>
<circle opacity="0.2" cx="2.5" cy="57.5" r="2.5" fill="#D9D9D9"/>
<circle opacity="0.2" cx="57.5" cy="57.5" r="2.5" fill="#D9D9D9"/>
<circle opacity="0.2" cx="112.5" cy="57.5" r="2.5" fill="#D9D9D9"/>
<circle opacity="0.2" cx="167.5" cy="57.5" r="2.5" fill="#D9D9D9"/>
<circle opacity="0.2" cx="222.5" cy="57.5" r="2.5" fill="#D9D9D9"/>
<circle opacity="0.2" cx="277.5" cy="57.5" r="2.5" fill="#D9D9D9"/>
<circle opacity="0.2" cx="332.5" cy="57.5" r="2.5" fill="#D9D9D9"/>
<circle opacity="0.2" cx="387.5" cy="57.5" r="2.5" fill="#D9D9D9"/>
<circle opacity="0.2" cx="442.5" cy="57.5" r="2.5" fill="#D9D9D9"/>
<circle opacity="0.2" cx="497.5" cy="57.5" r="2.5" fill="#D9D9D9"/>
<circle opacity="0.5" cx="2.5" cy="112.5" r="2.5" fill="#D9D9D9"/>
<circle opacity="0.5" cx="57.5" cy="112.5" r="2.5" fill="#D9D9D9"/>
<circle opacity="0.5" cx="112.5" cy="112.5" r="2.5" fill="#D9D9D9"/>
<circle opacity="0.5" cx="167.5" cy="112.5" r="2.5" fill="#D9D9D9"/>
<circle opacity="0.5" cx="222.5" cy="112.5" r="2.5" fill="#D9D9D9"/>
<circle opacity="0.5" cx="277.5" cy="112.5" r="2.5" fill="#D9D9D9"/>
<circle opacity="0.5" cx="332.5" cy="112.5" r="2.5" fill="#D9D9D9"/>
<circle opacity="0.5" cx="387.5" cy="112.5" r="2.5" fill="#D9D9D9"/>
<circle opacity="0.5" cx="442.5" cy="112.5" r="2.5" fill="#D9D9D9"/>
<circle opacity="0.5" cx="497.5" cy="112.5" r="2.5" fill="#D9D9D9"/>
<circle opacity="0.5" cx="2.5" cy="167.5" r="2.5" fill="#D9D9D9"/>
<circle opacity="0.5" cx="57.5" cy="167.5" r="2.5" fill="#D9D9D9"/>
<circle opacity="0.5" cx="112.5" cy="167.5" r="2.5" fill="#D9D9D9"/>
<circle opacity="0.5" cx="167.5" cy="167.5" r="2.5" fill="#D9D9D9"/>
<circle opacity="0.5" cx="222.5" cy="167.5" r="2.5" fill="#D9D9D9"/>
<circle opacity="0.5" cx="277.5" cy="167.5" r="2.5" fill="#D9D9D9"/>
<circle opacity="0.5" cx="332.5" cy="167.5" r="2.5" fill="#D9D9D9"/>
<circle opacity="0.5" cx="387.5" cy="167.5" r="2.5" fill="#D9D9D9"/>
<circle opacity="0.5" cx="442.5" cy="167.5" r="2.5" fill="#D9D9D9"/>
<circle opacity="0.5" cx="497.5" cy="167.5" r="2.5" fill="#D9D9D9"/>
<circle cx="2.5" cy="222.5" r="2.5" fill="#D9D9D9"/>
<circle cx="57.5" cy="222.5" r="2.5" fill="#D9D9D9"/>
<circle cx="112.5" cy="222.5" r="2.5" fill="#D9D9D9"/>
<circle cx="167.5" cy="222.5" r="2.5" fill="#D9D9D9"/>
<circle cx="222.5" cy="222.5" r="2.5" fill="#D9D9D9"/>
<circle cx="277.5" cy="222.5" r="2.5" fill="#D9D9D9"/>
<circle cx="332.5" cy="222.5" r="2.5" fill="#D9D9D9"/>
<circle cx="387.5" cy="222.5" r="2.5" fill="#D9D9D9"/>
<circle cx="442.5" cy="222.5" r="2.5" fill="#D9D9D9"/>
<circle cx="497.5" cy="222.5" r="2.5" fill="#D9D9D9"/>
</svg>
