<svg width="85" height="85" viewBox="0 0 85 85" fill="none" xmlns="http://www.w3.org/2000/svg">
<g clip-path="url(#clip0_363_2874)">
<g clip-path="url(#clip1_363_2874)">
<path d="M65.1988 0L20.3071 0C9.36903 0 0.501953 8.86707 0.501953 19.8052L0.501953 64.6969C0.501953 75.6349 9.36903 84.502 20.3071 84.502H65.1988C76.1369 84.502 85.004 75.6349 85.004 64.6969V19.8052C85.004 8.86707 76.1369 0 65.1988 0Z" fill="#242938"/>
<path fill-rule="evenodd" clip-rule="evenodd" d="M67.7799 22.7208L46.9383 10.3491C44.4508 8.87241 41.3846 8.87241 38.8971 10.3491L18.0552 22.7208C15.5684 24.1975 14.0356 26.9259 14.0356 29.8793L14.0356 54.6228C14.0356 57.5754 15.5684 60.3052 18.056 61.782L38.8977 74.1513C40.1415 74.8901 41.5285 75.2584 42.9178 75.2584C44.3065 75.2584 45.6939 74.8901 46.9376 74.1513L67.7793 61.782C70.2668 60.3052 71.8004 57.5754 71.8004 54.6228V29.8793C71.8004 26.9259 70.2668 24.1975 67.7799 22.7208Z" fill="#242938"/>
<path fill-rule="evenodd" clip-rule="evenodd" d="M39.6262 72.8846L18.7845 60.515C16.7459 59.3049 15.4796 57.0471 15.4796 54.6223L15.4796 29.8795C15.4796 27.4545 16.7459 25.1969 18.7837 23.9873L39.6262 11.6157C40.6254 11.0225 41.7635 10.7088 42.9178 10.7088C44.0715 10.7088 45.2096 11.0225 46.2098 11.6157L67.0514 23.9873C68.7692 25.0069 69.9278 26.7726 70.2536 28.7529C69.5624 27.2777 68.0034 26.8767 66.1869 27.9378L46.4696 40.1167C44.0111 41.5539 42.1983 43.1667 42.1966 46.1312V70.4268C42.1953 72.202 42.9122 73.3517 44.0134 73.6851C43.6516 73.7478 43.2869 73.7914 42.9178 73.7914C41.7635 73.7914 40.6254 73.4778 39.6262 72.8846ZM67.7799 22.7202L46.9383 10.3493C45.6945 9.61058 44.3059 9.24158 42.9178 9.24158C41.5295 9.24158 40.1408 9.61058 38.8971 10.3493L18.0552 22.7202C15.5684 24.197 14.0356 26.9261 14.0356 29.8795L14.0356 54.6223C14.0356 57.5749 15.5684 60.3047 18.056 61.7815L38.8977 74.1515C40.1421 74.8896 41.5295 75.2586 42.9178 75.2586C44.3065 75.2586 45.6939 74.8896 46.9376 74.1515L67.7799 61.7815C70.2674 60.3047 71.8004 57.5749 71.8004 54.6223V29.8795C71.8004 26.9261 70.2674 24.197 67.7799 22.7202Z" fill="white"/>
<path fill-rule="evenodd" clip-rule="evenodd" d="M62.316 57.0153L57.1264 60.1214C56.9887 60.2016 56.8877 60.2918 56.8867 60.4571V61.8151C56.8867 61.9811 56.9983 62.0501 57.1356 61.9693L62.4058 58.7664C62.5431 58.6862 62.5642 58.5327 62.5652 58.3674V57.1695C62.5652 57.0044 62.4536 56.9351 62.316 57.0153Z" fill="#47B353"/>
<path fill-rule="evenodd" clip-rule="evenodd" d="M51.2653 45.5838C51.4333 45.4986 51.5716 45.6032 51.5739 45.8231L51.5914 47.6184C52.343 47.3194 52.9959 47.2395 53.5874 47.3761C53.7158 47.4105 53.7726 47.5851 53.7201 47.7924L53.325 49.3834C53.2943 49.5035 53.2267 49.625 53.1451 49.7006C53.1108 49.7343 53.0758 49.7603 53.0411 49.7778C52.988 49.8049 52.9355 49.8135 52.8853 49.8032C52.6153 49.7422 51.9733 49.6019 50.9633 50.1135C49.9037 50.6499 49.533 51.5705 49.5403 52.2538C49.5492 53.0698 49.9677 53.317 51.4128 53.3418C53.3386 53.3738 54.1707 54.2152 54.1908 56.1548C54.2106 58.0594 53.194 60.1046 51.6386 61.3579L51.6729 63.1351C51.6749 63.349 51.536 63.5942 51.3679 63.6794L50.3153 64.2858C50.1466 64.3709 50.0083 64.266 50.006 64.0521L49.9879 62.3039C49.0864 62.6786 48.1727 62.769 47.5891 62.5347C47.4792 62.4918 47.432 62.3294 47.4756 62.1445L47.8571 60.5376C47.8875 60.4109 47.9545 60.2841 48.0456 60.2036C48.0776 60.1722 48.111 60.1481 48.1443 60.1313C48.2047 60.1009 48.2638 60.0943 48.314 60.1132C48.9428 60.3251 49.7472 60.226 50.5206 59.8346C51.5033 59.3375 52.1605 58.3353 52.1502 57.3398C52.1407 56.4363 51.6518 56.061 50.4625 56.0521C48.9487 56.0564 47.5376 55.758 47.5142 53.5296C47.4954 51.695 48.4493 49.7858 49.9595 48.5786L49.9406 46.7846C49.9383 46.5641 50.073 46.3215 50.2463 46.2344L51.2653 45.5838Z" fill="#242938"/>
</g>
</g>
<defs>
<clipPath id="clip0_363_2874">
<rect width="84.502" height="84.502" fill="white" transform="translate(0.501953)"/>
</clipPath>
<clipPath id="clip1_363_2874">
<rect width="84.502" height="84.502" fill="white" transform="translate(0.501953 -0.000244141)"/>
</clipPath>
</defs>
</svg>
