<svg width="84" height="84" viewBox="0 0 84 84" fill="none" xmlns="http://www.w3.org/2000/svg">
<g clip-path="url(#clip0_363_2856)">
<path d="M64.3125 0H19.6875C8.81439 0 0 8.81439 0 19.6875V64.3125C0 75.1856 8.81439 84 19.6875 84H64.3125C75.1856 84 84 75.1856 84 64.3125V19.6875C84 8.81439 75.1856 0 64.3125 0Z" fill="#394AAB"/>
<path d="M43.9691 10.8281C55.5004 10.8281 65.5686 17.0908 70.961 26.3997L70.9085 26.31L57.3408 34.122C54.6679 29.5961 49.7674 26.5418 44.1459 26.4789L43.9691 26.4779C35.3965 26.4779 28.4466 33.4274 28.4466 41.9997C28.4466 44.8032 29.194 47.4311 30.4938 49.7008C33.1695 54.3716 38.199 57.5223 43.9691 57.5223C49.7743 57.5223 54.8326 54.3316 57.4947 49.6109L57.4301 49.7241L70.977 57.5722C65.6437 66.8023 55.7137 73.0455 44.3162 73.1699L43.9691 73.1719C32.401 73.1719 22.3044 66.8706 16.9253 57.5124C14.2994 52.944 12.7969 47.6477 12.7969 41.9997C12.7969 24.7844 26.7528 10.8281 43.9691 10.8281Z" fill="white"/>
</g>
<defs>
<clipPath id="clip0_363_2856">
<rect width="84" height="84" fill="white"/>
</clipPath>
</defs>
</svg>
