<svg width="84" height="84" viewBox="0 0 84 84" fill="none" xmlns="http://www.w3.org/2000/svg">
<g clip-path="url(#clip0_363_2857)">
<path d="M64.3125 0H19.6875C8.81439 0 0 8.81439 0 19.6875V64.3125C0 75.1856 8.81439 84 19.6875 84H64.3125C75.1856 84 84 75.1856 84 64.3125V19.6875C84 8.81439 75.1856 0 64.3125 0Z" fill="#953CAD"/>
<path d="M64.1275 33.0317V37.4529H68.5487V33.0317H70.7592V37.4529H75.1801V39.6635H70.7592V44.0843H75.1801V46.2949H70.7592V50.716H68.5487V46.2949H64.1275V50.716H61.9169V46.2949H57.4961V44.0843H61.9169V39.6635H57.4961V37.4529H61.9169V33.0317H64.1275ZM68.5487 39.6635H64.1275V44.0843H68.5487V39.6635Z" fill="white"/>
<path d="M40.0316 10.8281C51.5629 10.8281 61.6311 17.0908 67.0235 26.3997L66.971 26.31L53.4033 34.122C50.7304 29.5961 45.8299 26.5418 40.2084 26.4789L40.0316 26.4779C31.459 26.4779 24.5091 33.4274 24.5091 41.9997C24.5091 44.8032 25.2565 47.4311 26.5563 49.7008C29.2319 54.3716 34.2615 57.5223 40.0316 57.5223C45.8368 57.5223 50.8951 54.3316 53.5572 49.6109L53.4926 49.7241L67.0395 57.5722C61.7062 66.8023 51.7762 73.0455 40.3787 73.1699L40.0316 73.1719C28.4635 73.1719 18.3669 66.8706 12.9878 57.5124C10.3619 52.944 8.85938 47.6477 8.85938 41.9997C8.85938 24.7844 22.8153 10.8281 40.0316 10.8281Z" fill="white"/>
</g>
<defs>
<clipPath id="clip0_363_2857">
<rect width="84" height="84" fill="white"/>
</clipPath>
</defs>
</svg>
