<svg width="84" height="84" viewBox="0 0 84 84" fill="none" xmlns="http://www.w3.org/2000/svg">
<g clip-path="url(#clip0_363_2845)">
<path d="M64.3125 0H19.6875C8.81439 0 0 8.81439 0 19.6875V64.3125C0 75.1856 8.81439 84 19.6875 84H64.3125C75.1856 84 84 75.1856 84 64.3125V19.6875C84 8.81439 75.1856 0 64.3125 0Z" fill="#0277BD"/>
<path d="M17.6376 33.6824L18.5769 44.1633H42.0315V33.6824H17.6376Z" fill="#EBEBEB"/>
<path d="M42.0312 12.4688H41.9951H15.75L16.7027 22.9498H42.0312V12.4688Z" fill="#EBEBEB"/>
<path d="M42.0311 71.8072V60.9026L41.9852 60.9148L30.3126 57.7631L29.5664 49.4038H23.8944H19.0452L20.5135 65.8606L41.9829 71.8207L42.0311 71.8072Z" fill="#EBEBEB"/>
<path d="M54.9013 44.1633L53.6846 57.7562L41.9951 60.9115V71.8154L63.4817 65.8606L63.6392 64.0897L66.1021 36.497L66.3577 33.6824L68.25 12.4688H41.9951V22.9498H56.7637L55.8102 33.6824H41.9951V44.1633H54.9013Z" fill="white"/>
</g>
<defs>
<clipPath id="clip0_363_2845">
<rect width="84" height="84" fill="white"/>
</clipPath>
</defs>
</svg>
