<svg width="84" height="84" viewBox="0 0 84 84" fill="none" xmlns="http://www.w3.org/2000/svg">
<g clip-path="url(#clip0_363_2858)">
<path d="M64.3125 0H19.6875C8.81439 0 0 8.81439 0 19.6875V64.3125C0 75.1856 8.81439 84 19.6875 84H64.3125C75.1856 84 84 75.1856 84 64.3125V19.6875C84 8.81439 75.1856 0 64.3125 0Z" fill="#242938"/>
<path d="M28.6942 28.5485L24.8755 24.7279L24.8903 52.3238L24.9364 53.6124C24.9549 54.2214 25.0702 54.9042 25.2548 55.6149L55.5013 66.2829L63.0685 62.9331L63.075 62.9219L28.6924 28.5485H28.6942Z" fill="#00C4B3"/>
<path d="M25.2557 55.6148H25.2585C25.2557 55.6037 25.2512 55.5909 25.2456 55.5778C25.2521 55.5919 25.2521 55.6056 25.2548 55.6148H25.2557ZM63.0613 62.933L55.4938 66.2828L25.2521 55.6148C25.8288 57.8333 27.1088 60.3267 28.4839 61.6871L38.3492 71.5036L60.3021 71.5312L63.0521 62.933H63.0613Z" fill="#22D3C5"/>
<path d="M24.979 24.7288L13.2191 42.4892C12.2428 43.532 12.73 45.6838 14.3016 47.2693L21.0901 54.1133L25.3574 55.6175C25.1728 54.9087 25.0565 54.2331 25.039 53.6149L24.9929 52.3267L24.979 24.7306V24.7288Z" fill="#0075C9"/>
<path d="M55.7503 25.0841C55.0399 24.9041 54.3587 24.7906 53.7451 24.7731L52.3811 24.7233L24.8755 24.7297L63.0741 62.9229L66.4298 55.3553L55.7523 25.0859L55.7503 25.0841Z" fill="#0075C9"/>
<path d="M55.7153 25.0776C55.7275 25.0823 55.7403 25.085 55.7504 25.0869V25.0832C55.7386 25.0804 55.7275 25.0804 55.7153 25.0758V25.0776ZM61.8201 28.3242C60.4311 26.9261 57.9719 25.648 55.7504 25.0869L66.428 55.3537L63.0686 62.9209L71.2655 60.3018L71.2839 37.8285L61.8191 28.3233L61.8201 28.3242Z" fill="#00A8E1"/>
<path d="M54.2536 20.8437L47.4246 14.0515C45.8316 12.4854 43.6797 11.9963 42.6462 12.9708L24.8867 24.728L52.3925 24.7215L53.7561 24.7713C54.3701 24.7898 55.0519 24.9024 55.7616 25.0823L54.2555 20.8418L54.2536 20.8437Z" fill="#00C4B3"/>
</g>
<defs>
<clipPath id="clip0_363_2858">
<rect width="84" height="84" fill="white"/>
</clipPath>
</defs>
</svg>
