<svg width="84" height="84" viewBox="0 0 84 84" fill="none" xmlns="http://www.w3.org/2000/svg">
<g clip-path="url(#clip0_363_2853)">
<path d="M64.3125 0H19.6875C8.81439 0 0 8.81439 0 19.6875V64.3125C0 75.1856 8.81439 84 19.6875 84H64.3125C75.1856 84 84 75.1856 84 64.3125V19.6875C84 8.81439 75.1856 0 64.3125 0Z" fill="#512BD4"/>
<path d="M7.89213 55.4345C7.15821 55.4345 6.53438 55.1946 6.02063 54.7146C5.50689 54.222 5.25 53.6373 5.25 52.9601C5.25 52.2707 5.50689 51.6797 6.02063 51.1872C6.53438 50.695 7.15821 50.4486 7.89213 50.4486C8.63828 50.4486 9.26822 50.695 9.782 51.1872C10.3079 51.6797 10.5709 52.2707 10.5709 52.9601C10.5709 53.6373 10.3079 54.222 9.782 54.7146C9.26822 55.1946 8.63828 55.4345 7.89213 55.4345Z" fill="white"/>
<path d="M37.2315 55.0282H32.461L19.8927 35.5645C19.5747 35.072 19.3115 34.5607 19.1037 34.0315H18.9935C19.0914 34.5978 19.1403 35.8106 19.1403 37.6694V55.0282H14.9202V28.5469H20.0026L32.1492 47.5493C32.6629 48.3374 32.9931 48.8788 33.1401 49.1745H33.2132C33.0912 48.4726 33.0298 47.2848 33.0298 45.61V28.5469H37.2315V55.0282Z" fill="white"/>
<path d="M57.7822 55.0282H43.012V28.5469H57.1952V32.2773H47.379V39.7747H56.4247V43.4864H47.379V51.3165H57.7822V55.0282Z" fill="white"/>
<path d="M78.7732 32.2773H71.2139V55.0282H66.8469V32.2773H59.3059V28.5469H78.7732V32.2773Z" fill="white"/>
</g>
<defs>
<clipPath id="clip0_363_2853">
<rect width="84" height="84" fill="white"/>
</clipPath>
</defs>
</svg>
