<svg width="84" height="84" viewBox="0 0 84 84" fill="none" xmlns="http://www.w3.org/2000/svg">
<g clip-path="url(#clip0_363_2850)">
<path d="M64.3125 0H19.6875C8.81439 0 0 8.81439 0 19.6875V64.3125C0 75.1856 8.81439 84 19.6875 84H64.3125C75.1856 84 84 75.1856 84 64.3125V19.6875C84 8.81439 75.1856 0 64.3125 0Z" fill="#242938"/>
<path d="M74.8124 60.0262C73.8572 60.3881 72.8026 60.3871 71.8478 60.0242C70.8933 59.661 70.1045 58.9608 69.631 58.0558C66.6572 53.6041 63.3733 49.3533 60.2171 45.0112L58.8485 43.1868C55.0901 48.2222 51.3318 53.0568 47.9019 58.0742C47.455 58.9391 46.7091 59.6121 45.8029 59.9678C44.8966 60.3238 43.8919 60.3379 42.9761 60.0082L57.0789 41.0888L43.9611 23.9937C44.9054 23.6527 45.9384 23.648 46.8857 23.9804C47.833 24.3128 48.6366 24.9619 49.1609 25.8181C52.2075 30.2697 55.583 34.5207 58.9397 39.0272C62.3151 34.5571 65.6538 30.288 68.7736 25.8728C69.2228 25.022 69.9693 24.3659 70.871 24.0295C71.7723 23.6931 72.7662 23.6998 73.663 24.0484L68.5728 30.7988C66.2923 33.809 64.0483 36.8376 61.6766 39.775C61.4853 39.9463 61.3324 40.1556 61.2277 40.3899C61.123 40.6242 61.0689 40.8778 61.0689 41.1344C61.0689 41.3907 61.123 41.6443 61.2277 41.8786C61.3324 42.1129 61.4853 42.3222 61.6766 42.4935C66.037 48.277 70.3607 54.0786 74.8124 60.0262Z" fill="white"/>
<path d="M9.1875 40.8516C9.57062 39.0272 9.80782 37.0384 10.3369 35.1776C13.4932 23.9574 26.3555 19.2868 35.2039 26.2379C40.3853 30.3064 41.6807 36.0718 41.4255 42.5667H12.2343C11.76 54.1702 20.1341 61.176 30.8436 57.6001C32.5808 56.9786 34.1358 55.9345 35.3686 54.5616C36.6014 53.1887 37.4725 51.5304 37.904 49.7365C38.4697 47.9122 39.3819 47.6021 41.115 48.131C40.8296 50.3521 40.0444 52.4797 38.8182 54.3536C37.5923 56.2275 35.9573 57.7989 34.0364 58.95C30.8626 60.6857 27.2212 61.3732 23.6331 60.9144C20.045 60.4557 16.6938 58.8742 14.0587 56.3958C11.4519 53.4647 9.87568 49.7615 9.57062 45.8506C9.57062 45.2304 9.33345 44.6099 9.20574 44.0262C9.19357 42.9437 9.1875 41.8855 9.1875 40.8516ZM12.2708 40.067H38.6705C38.5061 31.6565 33.1971 25.6906 26.1183 25.6359C18.2367 25.5264 12.5992 31.3646 12.2525 40.0306L12.2708 40.067Z" fill="white"/>
</g>
<defs>
<clipPath id="clip0_363_2850">
<rect width="84" height="84" fill="white"/>
</clipPath>
</defs>
</svg>
