<svg width="85" height="85" viewBox="0 0 85 85" fill="none" xmlns="http://www.w3.org/2000/svg">
<g clip-path="url(#clip0_363_2882)">
<g clip-path="url(#clip1_363_2882)">
<path d="M64.7008 0L19.8091 0C8.87098 0 0.00390625 8.86707 0.00390625 19.8052L0.00390625 64.6969C0.00390625 75.6349 8.87098 84.502 19.8091 84.502H64.7008C75.6389 84.502 84.5059 75.6349 84.5059 64.6969V19.8052C84.5059 8.86707 75.6389 0 64.7008 0Z" fill="#242938"/>
<mask id="mask0_363_2882" style="mask-type:luminance" maskUnits="userSpaceOnUse" x="20" y="9" width="45" height="67">
<path d="M64.1594 9.24316L20.1392 9.24316L20.1392 75.2604H64.1594V9.24316Z" fill="white"/>
</mask>
<g mask="url(#mask0_363_2882)">
<path d="M31.1467 75.261C37.2204 75.261 42.1495 70.3318 42.1495 64.2582V53.2551H31.1467C25.0731 53.2551 20.1438 58.1846 20.1438 64.2582C20.1438 70.3318 25.0731 75.261 31.1467 75.261Z" fill="#0ACF83"/>
<path d="M20.1438 42.2521C20.1438 36.1785 25.0731 31.2493 31.1467 31.2493H42.1495V53.2549H31.1467C25.0731 53.2549 20.1438 48.3257 20.1438 42.2521Z" fill="#A259FF"/>
<path d="M20.1433 20.2463C20.1433 14.1727 25.0726 9.24341 31.1462 9.24341H42.1491V31.2492H31.1462C25.0726 31.2492 20.1433 26.3198 20.1433 20.2463Z" fill="#F24E1E"/>
<path d="M42.1494 9.24329H53.1522C59.2258 9.24329 64.1553 14.1726 64.1553 20.2461C64.1553 26.3197 59.2258 31.249 53.1522 31.249H42.1494V9.24329Z" fill="#FF7262"/>
<path d="M64.1553 42.2521C64.1553 48.3257 59.2258 53.2549 53.1522 53.2549C47.0786 53.2549 42.1494 48.3257 42.1494 42.2521C42.1494 36.1785 47.0786 31.2493 53.1522 31.2493C59.2258 31.2493 64.1553 36.1785 64.1553 42.2521Z" fill="#1ABCFE"/>
</g>
</g>
</g>
<defs>
<clipPath id="clip0_363_2882">
<rect width="84.502" height="84.502" fill="white" transform="translate(0.00390625)"/>
</clipPath>
<clipPath id="clip1_363_2882">
<rect width="84.502" height="84.502" fill="white" transform="translate(0.00390625 -0.000244141)"/>
</clipPath>
</defs>
</svg>
