<svg width="84" height="84" viewBox="0 0 84 84" fill="none" xmlns="http://www.w3.org/2000/svg">
<g clip-path="url(#clip0_363_2863)">
<path d="M64.3125 0H19.6875C8.81439 0 0 8.81439 0 19.6875V64.3125C0 75.1856 8.81439 84 19.6875 84H64.3125C75.1856 84 84 75.1856 84 64.3125V19.6875C84 8.81439 75.1856 0 64.3125 0Z" fill="#242938"/>
<path d="M52.8311 30.3153L58.5356 24.6108L58.9159 22.2088C48.5209 12.7565 31.9963 13.8283 22.6255 24.4452C20.0226 27.394 18.0915 31.0703 17.0618 34.8666L19.1048 34.5785L30.5136 32.6973L31.3944 31.7965C36.4692 26.223 45.05 25.4732 50.9096 30.2153L52.8311 30.3153Z" fill="#EA4335"/>
<path d="M66.6619 34.6989C65.3507 29.8702 62.6588 25.5294 58.9158 22.209L50.9096 30.2152C54.2903 32.9775 56.2164 37.1391 56.1337 41.5042V42.9253C60.0689 42.9253 63.2592 46.1153 63.2592 50.0505C63.2592 53.9861 60.0689 57.0963 56.1337 57.0963H41.8625L40.4614 58.6175V67.1642L41.8625 68.5053H56.1337C66.3695 68.585 74.7321 60.4317 74.8118 50.1959C74.8601 43.9914 71.8013 38.1747 66.6619 34.6989Z" fill="#4285F4"/>
<path d="M27.6114 68.5052H41.8626V57.0963H27.6114C26.596 57.096 25.6127 56.8778 24.6893 56.4558L22.6675 57.0763L16.923 62.7807L16.4226 64.7223C19.6441 67.1547 23.5747 68.5226 27.6114 68.5052Z" fill="#34A853"/>
<path d="M27.6113 31.4962C17.3751 31.5572 9.12684 39.9049 9.18784 50.1411C9.22193 55.857 11.8916 61.2376 16.4225 64.7223L24.6892 56.4558C21.1026 54.8355 19.5089 50.6145 21.1293 47.0285C22.7494 43.4421 26.9704 41.8484 30.5565 43.4683C32.1369 44.1823 33.4025 45.4482 34.1165 47.0285L42.3829 38.762C38.8658 34.1637 33.4005 31.4755 27.6113 31.4962Z" fill="#FBBC05"/>
</g>
<defs>
<clipPath id="clip0_363_2863">
<rect width="84" height="84" fill="white"/>
</clipPath>
</defs>
</svg>
