<svg width="85" height="85" viewBox="0 0 85 85" fill="none" xmlns="http://www.w3.org/2000/svg">
<g clip-path="url(#clip0_363_2865)">
<g clip-path="url(#clip1_363_2865)">
<path d="M64.6969 0L19.8052 0C8.86707 0 0 8.86707 0 19.8052L0 64.6969C0 75.6349 8.86707 84.502 19.8052 84.502H64.6969C75.6349 84.502 84.502 75.6349 84.502 64.6969V19.8052C84.502 8.86707 75.6349 0 64.6969 0Z" fill="#F03C2E"/>
<mask id="mask0_363_2865" style="mask-type:luminance" maskUnits="userSpaceOnUse" x="9" y="9" width="67" height="67">
<path d="M75.2599 9.24316L9.24268 9.24316L9.24268 75.2604H75.2599V9.24316Z" fill="white"/>
</mask>
<g mask="url(#mask0_363_2865)">
<path d="M74.0139 39.3116L45.1911 10.4888C44.7966 10.0939 44.3279 9.7807 43.8123 9.567C43.2964 9.35327 42.7435 9.24329 42.1853 9.24329C41.6272 9.24329 41.0743 9.35327 40.5583 9.567C40.0427 9.7807 39.574 10.0939 39.1796 10.4888L33.1968 16.4716L40.7887 24.0636C42.5547 23.4447 44.5765 23.8676 45.9833 25.2746C46.653 25.9455 47.1208 26.7914 47.3327 27.7154C47.5446 28.6394 47.4925 29.6045 47.1818 30.5003L54.4995 37.8179C56.2698 37.2073 58.312 37.6011 59.7251 39.0185C60.1952 39.4885 60.5678 40.0464 60.822 40.6603C61.0762 41.2743 61.2069 41.9321 61.2069 42.5966C61.2065 43.2611 61.0758 43.9189 60.8213 44.5329C60.5668 45.1465 60.1942 45.7044 59.7241 46.1741C59.2544 46.6441 58.6966 47.0164 58.0826 47.2706C57.4686 47.5251 56.8108 47.6558 56.1463 47.6555C55.4819 47.6555 54.8237 47.5245 54.21 47.2703C53.5961 47.0158 53.0382 46.6431 52.5685 46.1731C51.0831 44.6877 50.7161 42.5009 51.467 40.6709L44.6425 33.8463V51.8053C45.138 52.0503 45.5905 52.3737 45.9833 52.7626C46.453 53.2323 46.8257 53.7898 47.0802 54.4038C47.3343 55.0174 47.4651 55.6753 47.4651 56.3397C47.4651 57.0042 47.3343 57.6621 47.0802 58.2757C46.8257 58.8896 46.453 59.4475 45.9833 59.9172C45.5136 60.3869 44.9557 60.7596 44.3421 61.0138C43.7282 61.2679 43.0703 61.399 42.4062 61.399C41.7417 61.399 41.0838 61.2679 40.4702 61.0138C39.8562 60.7596 39.2984 60.3869 38.8287 59.9172C38.3583 59.4475 37.9853 58.89 37.7308 58.2763C37.476 57.6624 37.345 57.0042 37.345 56.3397C37.345 55.6753 37.476 55.0174 37.7308 54.4034C37.9853 53.7895 38.3583 53.232 38.8287 52.7626C39.3175 52.2757 39.8602 51.9063 40.4854 51.6588V33.5328C39.883 33.2852 39.3175 32.9202 38.8287 32.4292C38.1183 31.7197 37.6354 30.8147 37.4413 29.8297C37.2476 28.8446 37.3512 27.8241 37.7394 26.8982L30.2506 19.4135L10.4867 39.1568C10.0916 39.5516 9.77811 40.0203 9.56421 40.5362C9.35032 41.0521 9.24023 41.605 9.24023 42.1635C9.24023 42.722 9.35032 43.2753 9.56421 43.7912C9.77811 44.3071 10.0916 44.7758 10.4867 45.1706L39.3116 73.9911C39.7061 74.3859 40.1748 74.6991 40.6904 74.913C41.2063 75.1266 41.7592 75.2365 42.3174 75.2365C42.8755 75.2365 43.4284 75.1266 43.9444 74.913C44.46 74.6991 44.9287 74.3859 45.3231 73.9911L74.0139 45.3459C74.409 44.9511 74.7226 44.4824 74.9365 43.9665C75.1504 43.4505 75.2603 42.8976 75.2603 42.3391C75.2603 41.7806 75.1504 41.2274 74.9365 40.7115C74.7226 40.1956 74.409 39.7268 74.0139 39.332" fill="white"/>
</g>
</g>
</g>
<defs>
<clipPath id="clip0_363_2865">
<rect width="84.502" height="84.502" fill="white"/>
</clipPath>
<clipPath id="clip1_363_2865">
<rect width="84.502" height="84.502" fill="white" transform="translate(0 -0.000244141)"/>
</clipPath>
</defs>
</svg>
