<svg width="84" height="84" viewBox="0 0 84 84" fill="none" xmlns="http://www.w3.org/2000/svg">
<g clip-path="url(#clip0_363_2844)">
<path d="M64.3125 0H19.6875C8.81439 0 0 8.81439 0 19.6875V64.3125C0 75.1856 8.81439 84 19.6875 84H64.3125C75.1856 84 84 75.1856 84 64.3125V19.6875C84 8.81439 75.1856 0 64.3125 0Z" fill="#E14E1D"/>
<path d="M15.75 12.4688L18.5751 44.1633H54.9019L53.6829 57.7575L41.9865 60.92L30.3122 57.7621L29.5316 49.0334H19.0112L20.5156 65.8599L41.9839 71.8226L63.4794 65.8599L66.3613 33.6837H28.161L27.2019 22.9506H67.2791H67.3112L68.25 12.4688H15.75Z" fill="white"/>
<path d="M42 12.4688H15.75L18.5751 44.1633H42V33.6837H28.161L27.2019 22.9506H42V12.4688Z" fill="#EBEBEB"/>
<path d="M42.0001 60.9154L41.9866 60.92L30.3122 57.7621L29.5317 49.0333H19.0112L20.5156 65.8599L41.984 71.8226L42.0001 71.818V60.9154Z" fill="#EBEBEB"/>
</g>
<defs>
<clipPath id="clip0_363_2844">
<rect width="84" height="84" fill="white"/>
</clipPath>
</defs>
</svg>
