<svg width="84" height="84" viewBox="0 0 84 84" fill="none" xmlns="http://www.w3.org/2000/svg">
<g clip-path="url(#clip0_363_2843)">
<path d="M64.3125 0H19.6875C8.81439 0 0 8.81439 0 19.6875V64.3125C0 75.1856 8.81439 84 19.6875 84H64.3125C75.1856 84 84 75.1856 84 64.3125V19.6875C84 8.81439 75.1856 0 64.3125 0Z" fill="#242938"/>
<path d="M33.3487 59.9218C33.3487 59.9218 30.8289 61.4555 35.1025 61.8942C40.2632 62.5517 42.9919 62.4418 48.6892 61.3469C48.6892 61.3469 50.2228 62.3342 52.3051 63.1004C39.4836 68.5787 23.267 62.7716 33.3487 59.9218ZM31.7051 52.7999C31.7051 52.7999 28.9653 54.8821 33.2387 55.3195C38.8261 55.8672 43.2108 55.9771 50.7714 54.4444C50.7714 54.4444 51.7588 55.5407 53.4014 56.0883C37.9523 60.6903 20.6382 56.5257 31.7051 52.8008V52.7999ZM61.9484 65.2916C61.9484 65.2916 63.8108 66.8252 59.8661 68.0314C52.524 70.2226 29.0753 70.8812 22.5007 68.0314C20.2007 67.0441 24.583 65.619 26.0068 65.4015C27.4316 65.0727 28.198 65.0727 28.198 65.0727C25.6781 63.3192 11.4327 68.6887 20.9658 70.2338C47.1545 74.5083 68.7419 68.3714 61.9474 65.3027L61.9484 65.2916ZM34.5539 45.3478C34.5539 45.3478 22.6095 48.1976 30.2791 49.1826C33.5665 49.62 40.0313 49.5114 46.0583 49.0727C50.9893 48.635 55.9315 47.7579 55.9315 47.7579C55.9315 47.7579 54.1777 48.525 52.9728 49.2915C40.7997 52.4721 17.4598 51.0473 24.1443 47.7599C29.8438 45.02 34.5539 45.3478 34.5539 45.3478ZM55.9201 57.2919C68.1942 50.9361 62.4947 44.8002 58.55 45.5677C57.5626 45.7865 57.1253 46.0054 57.1253 46.0054C57.1253 46.0054 57.4537 45.3478 58.2212 45.1303C66.0007 42.3904 72.138 53.3485 55.7015 57.622C55.7015 57.622 55.8114 57.5121 55.9201 57.2932V57.2919ZM35.7587 74.6038C47.5932 75.3712 65.6732 74.166 66.1119 68.5764C66.1119 68.5764 65.2368 70.7676 56.3601 72.4116C46.2794 74.274 33.7864 74.0551 26.4455 72.8489C26.4455 72.8489 27.9792 74.1637 35.7597 74.6024L35.7587 74.6038Z" fill="white"/>
<path d="M48.4592 9.1875C48.4592 9.1875 55.2527 16.0909 41.9945 26.4992C31.3652 34.9361 39.5824 39.7582 41.9945 45.2356C35.7486 39.6483 31.2575 34.7163 34.3239 30.1141C38.8274 23.324 51.2079 20.0368 48.4592 9.1875ZM44.9532 40.6357C48.1304 44.2516 44.078 47.5391 44.078 47.5391C44.078 47.5391 52.1863 43.3765 48.4615 38.2246C45.0641 33.2935 42.4345 30.8826 56.6797 22.6632C56.6797 22.6632 34.2162 28.2505 44.9555 40.6334L44.9532 40.6357Z" fill="#F58219"/>
</g>
<defs>
<clipPath id="clip0_363_2843">
<rect width="84" height="84" fill="white"/>
</clipPath>
</defs>
</svg>
