<svg width="84" height="84" viewBox="0 0 84 84" fill="none" xmlns="http://www.w3.org/2000/svg">
<g clip-path="url(#clip0_363_2846)">
<path d="M64.3125 0H19.6875C8.81439 0 0 8.81439 0 19.6875V64.3125C0 75.1856 8.81439 84 19.6875 84H64.3125C75.1856 84 84 75.1856 84 64.3125V19.6875C84 8.81439 75.1856 0 64.3125 0Z" fill="#F0DB4F"/>
<path d="M22.0866 70.1964L28.5149 66.3062C29.755 68.505 30.8831 70.3654 33.5891 70.3654C36.1829 70.3654 37.8183 69.3509 37.8183 65.4042V38.5642H45.7123V65.5157C45.7123 73.6916 40.9197 77.4132 33.9274 77.4132C27.6127 77.4132 23.9471 74.1428 22.0864 70.1958" fill="#323330"/>
<path d="M50 69.3505L56.4273 65.6292C58.1195 68.3924 60.3185 70.4222 64.2088 70.4222C67.4799 70.4222 69.5654 68.7868 69.5654 66.5312C69.5654 63.8249 67.4228 62.8661 63.8141 61.2878L61.841 60.4416C56.1458 58.0174 52.3678 54.9724 52.3678 48.5444C52.3678 42.6237 56.8788 38.1127 63.9273 38.1127C68.9456 38.1127 72.5543 39.8609 75.1478 44.4281L69.0017 48.3751C67.6482 45.9506 66.1828 44.9921 63.9273 44.9921C61.6153 44.9921 60.1492 46.4582 60.1492 48.3751C60.1492 50.7432 61.6153 51.702 64.9983 53.1684L66.9716 54.0139C73.6814 56.89 77.4595 59.8214 77.4595 66.4184C77.4595 73.5236 71.8774 77.4138 64.3781 77.4138C57.0481 77.4138 52.3116 73.918 50 69.3505Z" fill="#323330"/>
</g>
<defs>
<clipPath id="clip0_363_2846">
<rect width="84" height="84" fill="white"/>
</clipPath>
</defs>
</svg>
