<svg width="84" height="84" viewBox="0 0 84 84" fill="none" xmlns="http://www.w3.org/2000/svg">
<g clip-path="url(#clip0_363_2851)">
<path d="M64.3125 0H19.6875C8.81439 0 0 8.81439 0 19.6875V64.3125C0 75.1856 8.81439 84 19.6875 84H64.3125C75.1856 84 84 75.1856 84 64.3125V19.6875C84 8.81439 75.1856 0 64.3125 0Z" fill="#242938"/>
<path fill-rule="evenodd" clip-rule="evenodd" d="M70.8245 25.6967C70.8455 25.7766 70.8566 25.859 70.8566 25.9417V38.8041C70.8566 38.9691 70.8136 39.1312 70.7323 39.2739C70.6506 39.417 70.5331 39.5355 70.392 39.6175L59.7457 45.8328V58.1523C59.7457 58.4876 59.5701 58.797 59.2833 58.966L37.0601 71.9385C37.0092 71.9677 36.9538 71.9864 36.8983 72.0064C36.8773 72.0136 36.858 72.0264 36.836 72.0323C36.6804 72.0736 36.5174 72.0736 36.3618 72.0323C36.3366 72.0251 36.3133 72.011 36.289 72.0018C36.2381 71.9831 36.185 71.9667 36.1364 71.9385L13.9179 58.966C13.7767 58.8837 13.6595 58.7652 13.5778 58.6225C13.4962 58.4798 13.4532 58.3173 13.4531 58.1523V19.5657C13.4531 19.4813 13.4647 19.3992 13.4855 19.3195C13.4924 19.2925 13.5086 19.2679 13.5179 19.241C13.5352 19.1917 13.5514 19.1413 13.5768 19.0956C13.5942 19.0651 13.6196 19.0405 13.6404 19.0124C13.667 18.9748 13.6913 18.9362 13.7225 18.9033C13.7491 18.8764 13.7837 18.8565 13.8138 18.833C13.8473 18.8049 13.8774 18.7744 13.9156 18.7521H13.9167L25.0266 12.2659C25.1672 12.1838 25.3267 12.1406 25.489 12.1406C25.6513 12.1406 25.8107 12.1838 25.9514 12.2659L37.0614 18.7521H37.0637C37.1004 18.7756 37.1319 18.8049 37.1654 18.8318C37.1953 18.8553 37.2287 18.8764 37.2553 18.9022C37.2878 18.9362 37.3111 18.9748 37.3387 19.0124C37.3583 19.0405 37.3849 19.0651 37.401 19.0956C37.4276 19.1425 37.4427 19.1917 37.4614 19.241C37.4706 19.2679 37.4866 19.2925 37.4935 19.3207C37.5149 19.4006 37.5257 19.4829 37.526 19.5657V43.6665L46.7837 38.2613V25.9405C46.7837 25.8585 46.7952 25.7752 46.8162 25.6967C46.8244 25.6686 46.8392 25.644 46.8487 25.617C46.8671 25.5678 46.8832 25.5174 46.9088 25.4716C46.9261 25.4411 46.9514 25.4165 46.9711 25.3884C46.999 25.3509 47.022 25.3122 47.0544 25.2794C47.081 25.2524 47.1145 25.2325 47.1447 25.209C47.1791 25.1809 47.2093 25.1504 47.2464 25.1281H47.2477L58.3587 18.6419C58.4991 18.5597 58.6586 18.5165 58.821 18.5165C58.9834 18.5165 59.1429 18.5597 59.2833 18.6419L70.3933 25.1281C70.4327 25.1516 70.4626 25.1809 70.4973 25.2079C70.5262 25.2313 70.5597 25.2524 70.5863 25.2782C70.6187 25.3122 70.6417 25.3509 70.6696 25.3884C70.6903 25.4165 70.7159 25.4411 70.7319 25.4716C70.7585 25.5174 70.7736 25.5678 70.792 25.617C70.8025 25.644 70.8176 25.6686 70.8245 25.6967ZM69.0047 38.2613V27.5653L65.1167 29.8349L59.7457 32.9707V43.6665L69.0057 38.2613H69.0047ZM57.8947 57.6096V46.9068L52.6116 49.9666L37.5247 58.6976V69.5011L57.8947 57.6096ZM15.3052 21.1893V57.6096L35.6728 69.5002V58.6986L25.0323 52.5922L25.0288 52.5899L25.0242 52.5876C24.9884 52.5666 24.9583 52.5361 24.9248 52.5102C24.8959 52.4869 24.8624 52.4682 24.837 52.4423L24.8347 52.439C24.8046 52.4094 24.7838 52.3733 24.7583 52.3402C24.7352 52.3087 24.7075 52.2818 24.689 52.249L24.6877 52.2454C24.6669 52.2103 24.6541 52.1679 24.6391 52.1282C24.6241 52.0931 24.6044 52.0603 24.5952 52.0226V52.0213C24.5837 51.977 24.5813 51.9301 24.5767 51.8841C24.5721 51.849 24.5628 51.8139 24.5628 51.7788V51.7765V26.5947L19.193 23.4577L15.3052 21.1905V21.1893ZM25.4901 14.1627L16.2335 19.5657L25.4878 24.9687L34.7432 19.5645L25.4878 14.1627H25.4901ZM30.304 47.882L35.6741 44.7474V21.1893L31.7861 23.4588L26.415 26.5947V50.1529L30.304 47.882ZM58.821 20.5387L49.5653 25.9417L58.821 31.3447L68.0751 25.9405L58.821 20.5387ZM57.8947 32.9707L52.5236 29.8349L48.636 27.5653V38.2613L54.0058 41.3959L57.8947 43.6665V32.9707ZM36.5978 57.0741L50.1733 49.2148L56.9596 45.2878L47.711 39.8882L37.0624 46.1048L27.3572 51.7706L36.5978 57.0741Z" fill="#FF2D20"/>
</g>
<defs>
<clipPath id="clip0_363_2851">
<rect width="84" height="84" fill="white"/>
</clipPath>
</defs>
</svg>
