<svg width="84" height="84" viewBox="0 0 84 84" fill="none" xmlns="http://www.w3.org/2000/svg">
<g clip-path="url(#clip0_363_2861)">
<path d="M64.3125 0H19.6875C8.81439 0 0 8.81439 0 19.6875V64.3125C0 75.1856 8.81439 84 19.6875 84H64.3125C75.1856 84 84 75.1856 84 64.3125V19.6875C84 8.81439 75.1856 0 64.3125 0Z" fill="#023430"/>
<path d="M56.1662 35.3033C52.7087 20.0516 45.5031 15.9914 43.6649 13.1213C42.907 11.8569 42.2353 10.5426 41.6552 9.1875C41.558 10.5424 41.3795 11.396 40.2278 12.4235C37.9155 14.4852 28.0946 22.4882 27.2681 39.8173C26.4981 55.9748 39.1463 65.9377 40.8171 66.9677C42.1021 67.6 43.6669 66.9811 44.4304 66.4007C50.5273 62.2164 58.8578 51.0608 56.1727 35.3033" fill="#10AA50"/>
<path d="M42.1788 58.3639C41.8605 62.3631 41.6325 64.6869 40.824 66.9723C40.824 66.9723 41.3546 70.7795 41.7273 74.8125H43.046C43.3607 71.9725 43.8408 69.1533 44.4845 66.3692C42.7773 65.5292 42.2444 61.8732 42.1788 58.3639Z" fill="#B8C4C2"/>
<path d="M44.4824 66.3715C42.7571 65.5745 42.258 61.8414 42.1812 58.3639C42.6078 52.6273 42.7322 46.8723 42.554 41.1226C42.4634 38.1058 42.5967 13.18 41.8108 9.53076C42.3486 10.7667 42.9678 11.9655 43.665 13.119C45.5032 15.9914 52.7111 20.0516 56.1663 35.3033C58.8579 51.034 50.5727 62.16 44.4824 66.3715Z" fill="#12924F"/>
</g>
<defs>
<clipPath id="clip0_363_2861">
<rect width="84" height="84" fill="white"/>
</clipPath>
</defs>
</svg>
