<svg width="84" height="84" viewBox="0 0 84 84" fill="none" xmlns="http://www.w3.org/2000/svg">
<g clip-path="url(#clip0_363_2859)">
<path d="M64.3125 0H19.6875C8.81439 0 0 8.81439 0 19.6875V64.3125C0 75.1856 8.81439 84 19.6875 84H64.3125C75.1856 84 84 75.1856 84 64.3125V19.6875C84 8.81439 75.1856 0 64.3125 0Z" fill="#242938"/>
<mask id="mask0_363_2859" style="mask-type:luminance" maskUnits="userSpaceOnUse" x="12" y="12" width="60" height="60">
<path d="M71.5312 12.4688H12.4688V71.5312H71.5312V12.4688Z" fill="white"/>
</mask>
<g mask="url(#mask0_363_2859)">
<path fill-rule="evenodd" clip-rule="evenodd" d="M66.8723 58.4752C63.6599 58.3859 61.1678 58.715 59.0793 59.5937C58.4779 59.8352 57.5128 59.8352 57.4334 60.5922C57.755 60.9099 57.7937 61.4296 58.0756 61.8699C58.5569 62.6689 59.4015 63.7452 60.1641 64.3037L62.7346 66.1405C64.3011 67.0976 66.0684 67.6571 67.5945 68.6152C68.4785 69.1743 69.3618 69.8929 70.2457 70.4924C70.6959 70.8117 70.9686 71.3318 71.5313 71.5303V71.4095C71.2505 71.0515 71.1694 70.5328 70.8895 70.1318L69.683 68.9748C68.5191 67.4182 67.0721 66.0598 65.5056 64.9432C64.2201 64.0648 61.4093 62.8674 60.887 61.3912L60.8079 61.3016C61.6902 61.2124 62.7346 60.9016 63.5789 60.6621C64.9455 60.3041 66.1898 60.3829 67.5945 60.0239L69.5239 59.4648V59.1068C68.8007 58.3885 68.2786 57.4301 67.5161 56.7522C65.4679 54.9957 63.217 53.2786 60.887 51.8418C59.642 51.0438 58.0349 50.5237 56.7096 49.8465C56.2263 49.6066 55.424 49.4868 55.1431 49.0878C54.4183 48.2111 54.0177 47.0521 53.4956 46.0136L50.2022 39.0679C49.4794 37.5109 49.0364 35.954 48.1541 34.5171C44.0161 27.7306 39.5165 23.6194 32.6075 19.5868C31.122 18.7485 29.3547 18.3879 27.4757 17.9495L24.4633 17.7884C23.8196 17.5093 23.1777 16.7506 22.615 16.3909C20.3255 14.9539 14.4204 11.8403 12.7323 15.9435C11.6474 18.5382 14.3393 21.0927 15.2531 22.4106C15.9374 23.3286 16.8197 24.3665 17.3032 25.4044C17.5732 26.0826 17.6633 26.8019 17.9451 27.5204C18.587 29.2767 19.1902 31.2335 20.0338 32.8709C20.4839 33.7093 20.9566 34.5886 21.5193 35.3466C21.8407 35.7939 22.4034 35.9855 22.5231 36.7037C21.9604 37.5027 21.9218 38.6991 21.6003 39.6985C20.1535 44.2096 20.7162 49.7982 22.7644 53.1195C23.4082 54.117 24.9252 56.3135 26.9833 55.4745C28.7911 54.7559 28.3878 52.4806 28.9099 50.4843C29.0315 50.0059 28.9505 49.6863 29.1908 49.3661V49.4557L30.8384 52.7687C32.0835 54.7247 34.2534 56.761 36.06 58.1191C37.0234 58.8377 37.787 60.0761 38.9915 60.5145V60.3937H38.9124C38.6709 60.0357 38.309 59.8746 37.9878 59.5954C37.2649 58.8771 36.4617 57.9984 35.8989 57.2004C34.2127 54.9652 32.7272 52.4895 31.4011 49.9351C30.7574 48.6977 30.1947 47.3402 29.6743 46.1029C29.4312 45.6235 29.4312 44.9039 29.0306 44.666C28.4274 45.5428 27.5451 46.3034 27.1012 47.3806C26.3378 49.0967 26.2585 51.2128 25.9776 53.4086C25.8156 53.4486 25.8876 53.4086 25.8156 53.4978C24.5317 53.1796 24.0888 51.8605 23.6071 50.7439C22.4025 47.9095 22.2008 43.3588 23.2452 40.0851C23.5261 39.2467 24.7325 36.6119 24.2508 35.8135C24.0077 35.0549 23.2065 34.6165 22.7635 34.0171C22.2413 33.2584 21.6805 32.3009 21.3185 31.4626C20.3552 29.2257 19.8735 26.7518 18.8283 24.5159C18.3448 23.478 17.5021 22.3999 16.8188 21.4425C16.0553 20.3644 15.2135 19.6056 14.6103 18.3288C14.4096 17.8815 14.1287 17.1711 14.4501 16.6915C14.5293 16.3721 14.6914 16.2441 15.011 16.1726C15.5332 15.7252 17.0205 16.2925 17.5426 16.5305C19.0282 17.1299 20.2733 17.6882 21.5184 18.5257C22.0811 18.9247 22.6843 19.6835 23.4072 19.8839H24.2517C25.5374 20.1631 26.9824 19.9734 28.1861 20.3313C30.3153 21.0113 32.2429 22.008 33.9715 23.087C39.233 26.4002 43.5725 31.1109 46.5036 36.7405C46.9853 37.6586 47.1861 38.4969 47.6291 39.4551C48.4737 41.412 49.5181 43.4073 50.3597 45.3246C51.2043 47.2008 52.0072 49.1184 53.2121 50.675C53.8152 51.5133 56.2243 51.9517 57.3084 52.3911C58.1123 52.7491 59.3566 53.0713 60.0814 53.5096C61.4461 54.348 62.8121 55.3061 64.0967 56.2242C64.7385 56.702 66.7483 57.7005 66.8677 58.4968L66.8723 58.4752ZM25.9083 23.7849C25.3533 23.78 24.8001 23.8471 24.2625 23.9844V24.0739H24.3418C24.6632 24.7127 25.2259 25.152 25.6274 25.7113L26.552 27.6278L26.6312 27.5383C27.1939 27.1392 27.4757 26.5004 27.4757 25.543C27.2345 25.2639 27.1949 24.9838 26.9941 24.7047C26.7528 24.3056 26.2306 24.1052 25.9083 23.7867V23.7849Z" fill="white"/>
</g>
</g>
<defs>
<clipPath id="clip0_363_2859">
<rect width="84" height="84" fill="white"/>
</clipPath>
</defs>
</svg>
