<svg width="84" height="84" viewBox="0 0 84 84" fill="none" xmlns="http://www.w3.org/2000/svg">
<g clip-path="url(#clip0_363_2849)">
<path d="M64.3125 0H19.6875C8.81439 0 0 8.81439 0 19.6875V64.3125C0 75.1856 8.81439 84 19.6875 84H64.3125C75.1856 84 84 75.1856 84 64.3125V19.6875C84 8.81439 75.1856 0 64.3125 0Z" fill="#242938"/>
<path d="M39.335 10.2101C40.949 9.2862 43.051 9.2821 44.6634 10.2101C52.7753 14.7937 60.8898 19.3703 69.0004 23.9567C70.5262 24.816 71.5463 26.5137 71.5309 28.2715V55.8488C71.5424 57.6794 70.4212 59.4179 68.8118 60.2575C60.7264 64.8162 52.645 69.3801 44.561 73.9387C42.9142 74.8804 40.7699 74.8079 39.1739 73.7887C36.75 72.3837 34.3219 70.9852 31.8977 69.5815C31.4023 69.2862 30.8439 69.0513 30.4941 68.5709C30.8033 68.1542 31.3562 68.1023 31.8055 67.9202C32.8171 67.5983 33.7467 67.0819 34.6759 66.5808C34.9112 66.42 35.198 66.4817 35.4234 66.6254C37.4962 67.8139 39.5509 69.0372 41.6305 70.2141C42.0742 70.4704 42.5234 70.1302 42.9027 69.9188C50.8367 65.4344 58.7806 60.9673 66.7137 56.4815C67.0077 56.34 67.1701 56.028 67.1462 55.7061C67.1518 46.6088 67.1475 37.5103 67.1491 28.4129C67.1826 28.0476 66.9713 27.7118 66.6409 27.5622C58.5838 23.0246 50.5303 18.4802 42.4745 13.9414C42.1887 13.7449 41.8117 13.7444 41.5255 13.94C33.4694 18.4802 25.4178 23.0289 17.3619 27.5661C17.0327 27.7159 16.8118 28.0463 16.851 28.4129C16.8524 37.5103 16.851 46.6088 16.851 55.7074C16.8224 56.0293 16.9972 56.3348 17.2891 56.4733C19.4389 57.6922 21.5914 58.9027 23.7425 60.1177C24.9544 60.7697 26.4424 61.1576 27.7776 60.6578C28.9558 60.2352 29.7817 59.0326 29.7592 57.7818C29.7704 48.7377 29.7537 39.6923 29.7676 30.6494C29.7383 30.2479 30.119 29.9162 30.5094 29.954C31.5424 29.947 32.5766 29.9401 33.6095 29.9568C34.0407 29.947 34.3373 30.3794 34.2841 30.7838C34.2799 39.8852 34.2953 48.9868 34.2773 58.088C34.2799 60.5138 33.2834 63.1532 31.0397 64.3401C28.2757 65.7717 24.8594 65.4682 22.1287 64.0953C19.7648 62.9153 17.5089 61.5228 15.1869 60.2588C13.5733 59.4238 12.4576 57.6785 12.4689 55.8492V28.2715C12.452 26.4774 13.513 24.7488 15.086 23.9021C23.17 19.3399 31.2526 14.7742 39.335 10.2101Z" fill="#81CD39"/>
<path d="M46.3878 29.3131C49.9135 29.0861 53.6879 29.1787 56.8605 30.9154C59.3172 32.2466 60.6789 35.0401 60.7222 37.7691C60.6537 38.137 60.2688 38.3401 59.9173 38.3148C58.8946 38.3135 57.8712 38.3289 56.8484 38.3079C56.4143 38.3246 56.1623 37.9247 56.1078 37.5411C55.8138 36.2351 55.1014 34.942 53.8726 34.312C51.9859 33.3677 49.7986 33.4152 47.7413 33.4349C46.2394 33.5143 44.6244 33.6446 43.3519 34.5276C42.3751 35.1966 42.0785 36.5472 42.427 37.6349C42.7557 38.4159 43.6571 38.6679 44.3951 38.9002C48.6439 40.0115 53.1465 39.9006 57.3143 41.3631C59.0399 41.9593 60.7278 43.1186 61.3184 44.9252C62.0912 47.3468 61.7525 50.2408 60.0296 52.1846C58.6324 53.7843 56.5977 54.6551 54.5682 55.1279C51.8684 55.73 49.0666 55.7455 46.3248 55.478C43.7467 55.184 41.0636 54.5068 39.0735 52.7503C37.3715 51.2725 36.5404 48.9697 36.6228 46.7476C36.6424 46.3722 37.0162 46.1104 37.3758 46.1412C38.4058 46.133 39.4361 46.1301 40.4661 46.1429C40.8779 46.1134 41.1827 46.469 41.204 46.8569C41.3937 48.1008 41.8613 49.4067 42.9464 50.144C45.0398 51.4949 47.6671 51.4024 50.0644 51.4401C52.0505 51.3522 54.2802 51.3256 55.9008 50.0128C56.7559 49.264 57.0092 48.0112 56.7782 46.9337C56.5278 46.0238 55.5759 45.5998 54.7586 45.3226C50.5641 43.996 46.0111 44.4773 41.8573 42.9768C40.1708 42.3809 38.54 41.2541 37.8923 39.5216C36.9883 37.0696 37.4024 34.0364 39.3058 32.1582C41.1617 30.2899 43.8405 29.5705 46.3878 29.3131Z" fill="#81CD39"/>
</g>
<defs>
<clipPath id="clip0_363_2849">
<rect width="84" height="84" fill="white"/>
</clipPath>
</defs>
</svg>
