<svg width="84" height="84" viewBox="0 0 84 84" fill="none" xmlns="http://www.w3.org/2000/svg">
<g clip-path="url(#clip0_363_2848)">
<path d="M64.3125 0H19.6875C8.81439 0 0 8.81439 0 19.6875V64.3125C0 75.1856 8.81439 84 19.6875 84H64.3125C75.1856 84 84 75.1856 84 64.3125V19.6875C84 8.81439 75.1856 0 64.3125 0Z" fill="#242938"/>
<path d="M16.13 32.8932H25.4513C28.1873 32.9162 30.1698 33.705 31.3989 35.2583C32.6281 36.8117 33.0337 38.9333 32.6163 41.6233C32.4542 42.8524 32.0946 44.058 31.5381 45.2405C31.0045 46.4231 30.263 47.4895 29.3121 48.4404C28.1525 49.6459 26.9122 50.4111 25.5905 50.736C24.2688 51.0608 22.9005 51.2229 21.4863 51.2229H17.3125L15.9908 57.8313H11.1562L16.13 32.8932ZM20.1994 36.8583L18.1125 47.2926C18.2516 47.3156 18.3908 47.3274 18.5299 47.3274C18.692 47.3274 18.8547 47.3274 19.0168 47.3274C21.2428 47.3504 23.098 47.1305 24.5818 46.6666C26.0656 46.1796 27.0631 44.4872 27.573 41.5885C27.9904 39.1538 27.573 37.7507 26.3209 37.38C25.0917 37.0092 23.5502 36.8353 21.695 36.8583C21.4167 36.8812 21.1503 36.893 20.895 36.893C20.6633 36.893 20.4199 36.893 20.1646 36.893L20.1994 36.8583Z" fill="white"/>
<path d="M38.1235 26.25H42.9233L41.5668 32.8932H45.8797C48.2448 32.9398 50.0069 33.4267 51.1665 34.354C52.349 35.2813 52.6968 37.044 52.2099 39.6408L49.8796 51.2229H45.0102L47.2362 40.1625C47.4678 39.0029 47.3983 38.18 47.0275 37.693C46.6567 37.2061 45.8567 36.9626 44.6276 36.9626L40.7669 36.9278L37.9148 51.2229H33.115L38.1235 26.25Z" fill="white"/>
<path d="M57.3641 32.8932H66.6855C69.4214 32.9162 71.4039 33.705 72.6331 35.2583C73.8622 36.8117 74.2678 38.9333 73.8504 41.6233C73.6883 42.8524 73.3287 44.058 72.7722 45.2405C72.2387 46.4231 71.4971 47.4895 70.5462 48.4404C69.3866 49.6459 68.1463 50.4111 66.8246 50.736C65.5029 51.0608 64.1346 51.2229 62.7204 51.2229H58.5467L57.225 57.8313H52.3904L57.3641 32.8932ZM61.4335 36.8583L59.3466 47.2926C59.4858 47.3156 59.6249 47.3274 59.764 47.3274C59.9261 47.3274 60.0888 47.3274 60.2509 47.3274C62.4769 47.3504 64.3322 47.1305 65.8159 46.6666C67.2997 46.1796 68.2972 44.4872 68.8071 41.5885C69.2245 39.1538 68.8071 37.7507 67.555 37.38C66.3259 37.0092 64.7843 36.8353 62.9291 36.8583C62.6508 36.8812 62.3844 36.893 62.1291 36.893C61.8975 36.893 61.654 36.893 61.3987 36.893L61.4335 36.8583Z" fill="white"/>
</g>
<defs>
<clipPath id="clip0_363_2848">
<rect width="84" height="84" fill="white"/>
</clipPath>
</defs>
</svg>
