<svg width="84" height="84" viewBox="0 0 84 84" fill="none" xmlns="http://www.w3.org/2000/svg">
<g clip-path="url(#clip0_363_2842)">
<path d="M64.3125 0H19.6875C8.81439 0 0 8.81439 0 19.6875V64.3125C0 75.1856 8.81439 84 19.6875 84H64.3125C75.1856 84 84 75.1856 84 64.3125V19.6875C84 8.81439 75.1856 0 64.3125 0Z" fill="#242938"/>
<path d="M41.7634 9.51562C25.1037 9.51562 26.1441 16.7403 26.1441 16.7403L26.1627 24.2249H42.0607V26.4722H19.8481C19.8481 26.4722 9.1875 25.2632 9.1875 42.0728C9.1875 58.8827 18.4922 58.2868 18.4922 58.2868H24.0454V50.4863C24.0454 50.4863 23.7461 41.1817 33.2017 41.1817H48.9694C48.9694 41.1817 57.8284 41.3247 57.8284 32.6197V18.2261C57.8284 18.2261 59.1734 9.51562 41.7634 9.51562ZM32.9972 14.5487C34.5791 14.5487 35.8575 15.8271 35.8575 17.4089C35.8575 18.9906 34.5791 20.269 32.9972 20.269C31.4155 20.269 30.1371 18.9906 30.1371 17.4089C30.1371 15.8271 31.4155 14.5487 32.9972 14.5487Z" fill="url(#paint0_linear_363_2842)"/>
<path d="M42.2365 74.7987C58.8961 74.7987 57.8559 67.5744 57.8559 67.5744L57.8372 60.0896H41.9392V57.8422H64.152C64.152 57.8422 74.8124 59.0514 74.8124 42.2415C74.8124 25.4317 65.5078 26.0279 65.5078 26.0279H59.9546V33.8284C59.9546 33.8284 60.2539 43.133 50.7983 43.133H35.0306C35.0306 43.133 26.1714 42.9897 26.1714 51.6948V66.0883C26.1714 66.0883 24.8264 74.7987 42.2365 74.7987ZM51.0027 69.7656C49.4208 69.7656 48.1425 68.4873 48.1425 66.9057C48.1425 65.3238 49.4208 64.0454 51.0027 64.0454C52.5843 64.0454 53.863 65.3238 53.863 66.9057C53.863 68.4873 52.5843 69.7656 51.0027 69.7656Z" fill="url(#paint1_linear_363_2842)"/>
</g>
<defs>
<linearGradient id="paint0_linear_363_2842" x1="15.4941" y1="15.3877" x2="48.0155" y2="47.5847" gradientUnits="userSpaceOnUse">
<stop stop-color="#387EB8"/>
<stop offset="1" stop-color="#366994"/>
</linearGradient>
<linearGradient id="paint1_linear_363_2842" x1="35.4558" y1="36.0626" x2="70.3801" y2="69.0776" gradientUnits="userSpaceOnUse">
<stop stop-color="#FFE052"/>
<stop offset="1" stop-color="#FFC331"/>
</linearGradient>
<clipPath id="clip0_363_2842">
<rect width="84" height="84" fill="white"/>
</clipPath>
</defs>
</svg>
