<svg width="84" height="84" viewBox="0 0 84 84" fill="none" xmlns="http://www.w3.org/2000/svg">
<g clip-path="url(#clip0_363_2852)">
<path d="M64.3125 0H19.6875C8.81439 0 0 8.81439 0 19.6875V64.3125C0 75.1856 8.81439 84 19.6875 84H64.3125C75.1856 84 84 75.1856 84 64.3125V19.6875C84 8.81439 75.1856 0 64.3125 0Z" fill="#242938"/>
<path d="M42.0004 48.2183C45.3814 48.2183 48.1219 45.4775 48.1219 42.0968C48.1219 38.7162 45.3814 35.9753 42.0004 35.9753C38.6197 35.9753 35.8789 38.7162 35.8789 42.0968C35.8789 45.4775 38.6197 48.2183 42.0004 48.2183Z" fill="#00D8FF"/>
<path fill-rule="evenodd" clip-rule="evenodd" d="M42.0007 29.6505C50.2195 29.6505 57.8547 30.8299 63.6116 32.8118C70.5479 35.1997 74.8125 38.8192 74.8125 42.0969C74.8125 45.5123 70.2929 49.3576 62.8441 51.8254C57.2129 53.6911 49.8025 54.665 42.0007 54.665C34.0016 54.665 26.4268 53.7509 20.7321 51.8048C13.5271 49.3422 9.1875 45.4473 9.1875 42.0969C9.1875 38.8458 13.2594 35.2541 20.0981 32.87C25.8765 30.8554 33.7001 29.6505 41.9993 29.6505H42.0007Z" stroke="#00D8FF" stroke-width="2.92392"/>
<path fill-rule="evenodd" clip-rule="evenodd" d="M31.1656 35.9093C35.2718 28.7898 40.1073 22.7648 44.7004 18.7678C50.2339 13.9521 55.5004 12.0661 58.3393 13.7033C61.298 15.4095 62.3713 21.246 60.7881 28.9312C59.5921 34.7415 56.7328 41.6473 52.835 48.406C48.8388 55.3353 44.2631 61.4404 39.7326 65.4002C34 70.4114 28.4577 72.2249 25.5554 70.5511C22.7391 68.9282 21.6622 63.6057 23.0132 56.4903C24.1547 50.4781 27.0195 43.0989 31.1643 35.9093H31.1656Z" stroke="#00D8FF" stroke-width="2.92392"/>
<path fill-rule="evenodd" clip-rule="evenodd" d="M31.1758 48.424C27.0582 41.3122 24.2547 34.1125 23.0845 28.1373C21.6759 20.9379 22.6718 15.4335 25.5084 13.7916C28.4643 12.0803 34.0567 14.0654 39.9242 19.2753C44.3604 23.2141 48.9158 29.1392 52.8248 35.8913C56.8325 42.8141 59.8361 49.8277 61.0046 55.73C62.4831 63.1995 61.2864 68.9065 58.3868 70.5849C55.5735 72.2137 50.4249 70.4894 44.935 65.7651C40.2966 61.7738 35.3341 55.6067 31.1758 48.424Z" stroke="#00D8FF" stroke-width="2.92392"/>
</g>
<defs>
<clipPath id="clip0_363_2852">
<rect width="84" height="84" fill="white"/>
</clipPath>
</defs>
</svg>
