<svg width="84" height="84" viewBox="0 0 84 84" fill="none" xmlns="http://www.w3.org/2000/svg">
<g clip-path="url(#clip0_363_2847)">
<path d="M64.3125 0H19.6875C8.81439 0 0 8.81439 0 19.6875V64.3125C0 75.1856 8.81439 84 19.6875 84H64.3125C75.1856 84 84 75.1856 84 64.3125V19.6875C84 8.81439 75.1856 0 64.3125 0Z" fill="#CD6799"/>
<mask id="mask0_363_2847" style="mask-type:luminance" maskUnits="userSpaceOnUse" x="9" y="17" width="66" height="50">
<path d="M74.8125 17.3906H9.1875V66.5795H74.8125V17.3906Z" fill="white"/>
</mask>
<g mask="url(#mask0_363_2847)">
<path d="M65.6601 45.6629C63.3717 45.6747 61.3833 46.2259 59.718 47.0403C59.1071 45.8305 58.4961 44.7523 58.3882 43.9615C58.2684 43.0392 58.1247 42.4761 58.2684 41.3739C58.4121 40.2718 59.0592 38.7027 59.047 38.5829C59.0352 38.4628 58.9033 37.9001 57.5856 37.8879C56.2678 37.8761 55.1299 38.1396 54.998 38.4871C54.8661 38.8343 54.6147 39.625 54.4471 40.4398C54.2193 41.6378 51.8112 45.9145 50.4338 48.1546C49.9905 47.2802 49.6072 46.5134 49.5232 45.9024C49.4034 44.98 49.2597 44.417 49.4034 43.3148C49.5472 42.2126 50.1942 40.6432 50.1821 40.5234C50.1703 40.4037 50.0384 39.8406 48.7206 39.8288C47.4029 39.8167 46.2646 40.0801 46.133 40.4276C46.0011 40.7751 45.8574 41.5898 45.5818 42.3803C45.3065 43.1711 42.1079 50.3111 41.2692 52.1558C40.8381 53.1021 40.4666 53.8568 40.2031 54.372C40.2031 54.372 40.191 54.408 40.1552 54.4678C39.9275 54.9111 39.7956 55.1506 39.7956 55.1506C39.7956 55.1506 39.7956 55.1506 39.7956 55.1627C39.6161 55.4863 39.4242 55.7855 39.3284 55.7855C39.2565 55.7855 39.1249 54.9232 39.3523 53.7492C39.8317 51.2692 40.9696 47.4118 40.9578 47.2802C40.9578 47.2083 41.1734 46.5373 40.215 46.1898C39.2805 45.8423 38.9451 46.4175 38.8611 46.4175C38.7774 46.4175 38.7174 46.6213 38.7174 46.6213C38.7174 46.6213 39.7598 42.2845 36.729 42.2845C34.836 42.2845 32.2245 44.3569 30.9307 46.2259C30.1161 46.6692 28.379 47.6155 26.5221 48.6337C25.8154 49.0291 25.0846 49.4245 24.4017 49.7959C24.3538 49.748 24.3059 49.688 24.258 49.6401C20.5922 45.7226 13.8117 42.9555 14.0992 37.6963C14.207 35.7794 14.8659 30.748 27.1211 24.6383C37.208 19.6668 45.2346 21.0444 46.6242 24.0993C48.6127 28.4599 42.3235 36.558 31.9011 37.7321C27.9238 38.1754 25.8393 36.642 25.3122 36.0672C24.7611 35.468 24.6773 35.4323 24.4736 35.552C24.1382 35.7315 24.3538 36.2706 24.4736 36.582C24.7851 37.3967 26.0669 38.8342 28.2352 39.541C30.152 40.1641 34.812 40.5116 40.4545 38.3312C46.7679 35.8874 51.7036 29.0948 50.2539 23.4044C48.8046 17.6302 39.2207 15.7254 30.152 18.948C24.7611 20.8647 18.915 23.8836 14.7101 27.813C9.71459 32.4851 8.9239 36.5462 9.24737 38.2472C10.4094 44.2851 18.7353 48.2144 22.0657 51.1255C21.898 51.2213 21.7422 51.3053 21.6105 51.3772C19.9453 52.2037 13.596 55.522 12.0147 59.0323C10.2177 63.0095 12.3022 65.8606 13.6799 66.2438C17.9566 67.43 22.3532 65.2975 24.7132 61.7754C27.0732 58.2533 26.7857 53.6773 25.6956 51.5809C25.6836 51.557 25.6716 51.533 25.6476 51.5091C26.0789 51.2574 26.5221 50.9939 26.9534 50.7422C27.804 50.2392 28.6425 49.772 29.3613 49.3884C28.954 50.5027 28.6546 51.8323 28.5108 53.7492C28.3311 56.0014 29.2535 58.9244 30.4635 60.0744C31.0026 60.5775 31.6375 60.5896 32.0448 60.5896C33.4585 60.5896 34.0935 59.4156 34.8002 58.026C35.6625 56.3246 36.4415 54.348 36.4415 54.348C36.4415 54.348 35.4709 59.6912 38.1064 59.6912C39.0649 59.6912 40.0351 58.4453 40.4666 57.8104C40.4666 57.8222 40.4666 57.8222 40.4666 57.8222C40.4666 57.8222 40.4906 57.7864 40.5385 57.7024C40.6343 57.5466 40.694 57.4507 40.694 57.4507C40.694 57.4507 40.694 57.4389 40.694 57.4268C41.0776 56.7561 41.9399 55.2346 43.2219 52.7067C44.875 49.4484 46.4684 45.3754 46.4684 45.3754C46.4684 45.3754 46.6121 46.3696 47.1033 48.0227C47.3907 48.9933 47.9899 50.0594 48.4689 51.0897C48.0857 51.6288 47.8462 51.9281 47.8462 51.9281C47.8462 51.9281 47.8462 51.9281 47.858 51.9402C47.5466 52.3474 47.2112 52.7907 46.8398 53.2219C45.5339 54.7795 43.9766 56.5645 43.761 57.0796C43.5093 57.6906 43.5694 58.1336 44.0484 58.4932C44.3959 58.7567 45.0187 58.7925 45.6536 58.7567C46.8277 58.6727 47.6545 58.3853 48.0617 58.2054C48.6967 57.978 49.4395 57.6306 50.1342 57.1154C51.4162 56.1691 52.1948 54.8152 52.1229 53.0302C52.0868 52.0478 51.7633 51.0658 51.3683 50.1431C51.488 49.9754 51.5956 49.8077 51.7154 49.6401C53.7403 46.681 55.3094 43.4346 55.3094 43.4346C55.3094 43.4346 55.4531 44.4288 55.9443 46.0822C56.1838 46.9206 56.675 47.8311 57.1065 48.7177C55.2017 50.2632 54.0277 52.06 53.6084 53.234C52.8537 55.4144 53.4407 56.3965 54.5547 56.6242C55.058 56.7322 55.7766 56.4926 56.3039 56.2649C56.9746 56.0493 57.7654 55.6779 58.5201 55.1266C59.8017 54.1803 61.0358 52.8626 60.9639 51.0776C60.9278 50.2632 60.7123 49.4603 60.4127 48.6816C62.03 48.0109 64.1146 47.6395 66.774 47.9509C72.4765 48.6219 73.6027 52.1797 73.3868 53.6773C73.1712 55.1745 71.9732 55.9893 71.5778 56.241C71.1827 56.4926 71.0508 56.5763 71.0869 56.7561C71.1348 57.0196 71.3265 57.0075 71.6618 56.9595C72.129 56.8759 74.6566 55.7498 74.7646 52.9945C74.9444 49.4724 71.5899 45.6268 65.6601 45.6629ZM21.6703 60.4938C19.7776 62.5541 17.142 63.333 16.004 62.6742C14.782 61.9671 15.2612 58.9244 17.5853 56.744C18.9989 55.4144 20.8198 54.1803 22.0297 53.4256C22.3053 53.258 22.7126 53.0184 23.2038 52.7189C23.2876 52.671 23.3355 52.647 23.3355 52.647C23.4314 52.587 23.5272 52.5272 23.6231 52.4672C24.4736 55.5821 23.659 58.3255 21.6703 60.4938ZM35.447 51.1255C34.7881 52.731 33.4106 56.8398 32.5719 56.6124C31.8531 56.4204 31.4099 53.3059 32.4282 50.2271C32.9434 48.6816 34.0334 46.8369 34.6683 46.118C35.6986 44.9679 36.8366 44.5846 37.1122 45.0519C37.4597 45.6629 35.8545 50.1191 35.447 51.1255ZM46.8158 56.5645C46.5402 56.7082 46.2767 56.804 46.157 56.7322C46.073 56.6842 46.2767 56.4926 46.2767 56.4926C46.2767 56.4926 47.7024 54.959 48.2655 54.2643C48.5887 53.8568 48.9723 53.3777 49.3795 52.8386C49.3795 52.8865 49.3795 52.9466 49.3795 52.9945C49.3795 54.8274 47.6066 56.0611 46.8158 56.5645ZM55.585 54.5636C55.3812 54.4199 55.4173 53.9408 56.1001 52.4432C56.3636 51.8562 56.9867 50.8741 58.0528 49.9275C58.1726 50.3111 58.2566 50.6822 58.2444 51.0297C58.2326 53.342 56.5792 54.2043 55.585 54.5636Z" fill="white"/>
</g>
</g>
<defs>
<clipPath id="clip0_363_2847">
<rect width="84" height="84" fill="white"/>
</clipPath>
</defs>
</svg>
