<svg width="84" height="84" viewBox="0 0 84 84" fill="none" xmlns="http://www.w3.org/2000/svg">
<g clip-path="url(#clip0_363_2864)">
<mask id="mask0_363_2864" style="mask-type:luminance" maskUnits="userSpaceOnUse" x="0" y="0" width="84" height="84">
<path d="M64.3125 0H19.6875C8.81439 0 0 8.81439 0 19.6875V64.3125C0 75.1856 8.81439 84 19.6875 84H64.3125C75.1856 84 84 75.1856 84 64.3125V19.6875C84 8.81439 75.1856 0 64.3125 0Z" fill="white"/>
</mask>
<g mask="url(#mask0_363_2864)">
<path d="M19.6875 0C8.81439 0 0 8.81439 0 19.6875V64.3125C0 75.1856 8.81439 84 19.6875 84H55.2759C54.6922 82.2796 54.2351 79.5552 53.9779 76.4456C53.7564 73.7707 53.6829 70.8113 53.8056 67.957C53.7725 67.535 53.7525 67.2607 53.7525 67.2607C53.7525 67.2607 53.1375 63.123 52.2526 59.724C51.8608 58.2153 51.4149 56.8509 50.9467 56.0602C50.7055 55.6523 50.9729 53.9762 51.6459 51.494C52.0396 52.1735 53.7009 55.081 54.0346 56.0182C54.4103 57.0773 54.4891 57.3809 54.4891 57.3809C54.4891 57.3809 53.5779 52.6979 52.083 49.9652C52.4108 48.8604 52.8022 47.6395 53.2452 46.3342C53.763 47.2421 54.9399 49.327 55.3652 50.315C55.4046 50.4066 55.44 50.4925 55.4659 50.5634C55.5263 50.7347 55.5772 50.88 55.6228 51.0133C55.8626 51.7082 55.921 51.9294 55.921 51.9294C55.921 51.9294 55.8321 51.4746 55.6667 50.7731C55.5968 50.4768 55.5099 50.1283 55.4131 49.7572C55.0364 48.3105 54.4642 46.4166 53.7315 44.9325C55.6123 35.1563 61.6658 22.3553 68.1877 15.4445C68.7497 14.8494 69.3144 14.2924 69.8801 13.7903C73.6926 10.4106 77.5556 9.26897 80.746 12.1109C83.054 14.1676 83.9984 17.0082 84 20.2783V19.6875C84 8.81439 75.1856 0 64.3125 0H19.6875Z" fill="#D9D9D9"/>
<path d="M19.6875 0C8.81439 0 0 8.81439 0 19.6875V64.3125C0 75.1856 8.81439 84 19.6875 84H55.2759C54.6922 82.2796 54.2351 79.5552 53.9779 76.4456C53.7564 73.7707 53.6829 70.8113 53.8056 67.957C53.7725 67.535 53.7525 67.2607 53.7525 67.2607C53.7525 67.2607 53.1375 63.123 52.2526 59.724C51.8608 58.2153 51.4149 56.8509 50.9467 56.0602C50.7055 55.6523 50.9729 53.9762 51.6459 51.494C52.0396 52.1735 53.7009 55.081 54.0346 56.0182C54.4103 57.0773 54.4891 57.3809 54.4891 57.3809C54.4891 57.3809 53.5779 52.6979 52.083 49.9652C52.4108 48.8604 52.8022 47.6395 53.2452 46.3342C53.763 47.2421 54.9399 49.327 55.3652 50.315C55.4046 50.4066 55.44 50.4925 55.4659 50.5634C55.5263 50.7347 55.5772 50.88 55.6228 51.0133C55.8626 51.7082 55.921 51.9294 55.921 51.9294C55.921 51.9294 55.8321 51.4746 55.6667 50.7731C55.5968 50.4768 55.5099 50.1283 55.4131 49.7572C55.0364 48.3105 54.4642 46.4166 53.7315 44.9325C55.6123 35.1563 61.6658 22.3553 68.1877 15.4445C68.7497 14.8494 69.3144 14.2924 69.8801 13.7903C73.6926 10.4106 77.5556 9.26897 80.746 12.1109C83.054 14.1676 83.9984 17.0082 84 20.2783V19.6875C84 8.81439 75.1856 0 64.3125 0H19.6875Z" fill="url(#paint0_linear_363_2864)"/>
<path d="M80.7459 12.1109C77.5555 9.26898 73.6925 10.4106 69.88 13.7903C69.3144 14.2924 68.7496 14.8494 68.1876 15.4445C61.6658 22.3553 55.6122 35.1563 53.7314 44.9325C54.4641 46.4166 55.0363 48.3105 55.413 49.7572C55.5098 50.1283 55.5968 50.4768 55.6666 50.7731C55.832 51.4746 55.9209 51.9294 55.9209 51.9294C55.9209 51.9294 55.8625 51.7082 55.6227 51.0133C55.5771 50.8801 55.5262 50.7347 55.4658 50.5634C55.4399 50.4925 55.4045 50.4066 55.3651 50.315C54.9398 49.327 53.7629 47.2421 53.2451 46.3342C52.8021 47.6395 52.4107 48.8604 52.0829 49.9652C53.5778 52.6979 54.489 57.3809 54.489 57.3809C54.489 57.3809 54.4103 57.0773 54.0346 56.0182C53.7009 55.081 52.0396 52.1735 51.6458 51.494C50.9728 53.9762 50.7054 55.6523 50.9466 56.0602C51.4148 56.8509 51.8607 58.2153 52.2525 59.724C53.1375 63.1231 53.7524 67.2607 53.7524 67.2607C53.7524 67.2607 53.7724 67.535 53.8055 67.957C53.6828 70.8113 53.7563 73.7707 53.9778 76.4456C54.2708 79.9864 54.8227 83.0284 55.5262 84.6563L56.0036 84.3961C54.9707 81.189 54.551 76.9857 54.7348 72.138C55.0127 64.7286 56.7199 55.7931 59.8739 46.4799C65.2026 32.4208 72.5959 21.1407 79.3625 15.7537C73.1951 21.3172 64.8479 39.3258 62.3492 45.9946C59.5516 53.4624 57.5688 60.4705 56.3741 67.1846C58.4357 60.8902 65.1016 58.1844 65.1016 58.1844C65.1016 58.1844 68.371 54.157 72.1917 48.403C69.903 48.9244 66.145 49.8169 64.886 50.3452C63.0294 51.1232 62.5291 51.3887 62.5291 51.3887C62.5291 51.3887 68.5436 47.7301 73.7037 46.0737C80.8004 34.9092 88.5316 19.0487 80.7459 12.1109Z" fill="#003B57"/>
<path d="M9.35819 16.0781C8.35311 16.0781 7.53582 16.3717 6.90926 16.9586C6.28271 17.5459 5.96485 18.3158 5.96485 19.2592C5.96485 19.7481 6.0438 20.1939 6.19933 20.6023C6.35486 21.0116 6.59689 21.3908 6.92229 21.7334C7.24769 22.0763 7.89902 22.5421 8.86971 23.1343C10.0608 23.8518 10.8403 24.4341 11.2144 24.8887C11.5888 25.343 11.7746 25.8191 11.7746 26.3154C11.7746 26.9799 11.5529 27.5104 11.0972 27.9092C10.6408 28.3081 10.0304 28.5068 9.27353 28.5068C8.47527 28.5068 7.77994 28.2292 7.18282 27.6778C6.5857 27.1256 6.28428 26.3953 6.27749 25.48H5.90625V28.8024H6.27749C6.39082 28.4878 6.54767 28.3269 6.75294 28.3269C6.85171 28.3269 7.08304 28.3941 7.44335 28.5196C8.32 28.8274 9.03984 28.9759 9.6057 28.9759C10.5808 28.9759 11.4132 28.6389 12.1067 27.9541C12.7992 27.2696 13.1489 26.4439 13.1489 25.48C13.1489 24.7325 12.918 24.0675 12.465 23.4878C12.0119 22.9074 11.1308 22.2323 9.81412 21.457C8.6811 20.7854 7.94565 20.2383 7.60617 19.8119C7.2662 19.386 7.09163 18.915 7.09163 18.3981C7.09163 17.839 7.2998 17.3899 7.71038 17.055C8.12096 16.7197 8.65896 16.5537 9.33214 16.5537C10.0897 16.5537 10.7213 16.7755 11.221 17.222C11.7201 17.6693 12.0088 18.2891 12.0937 19.0857H12.465V16.2067H12.1198C12.0776 16.3534 12.0385 16.4473 12.0025 16.4894C11.9676 16.5313 11.9004 16.5537 11.8006 16.5537C11.6805 16.5537 11.4664 16.5038 11.1624 16.4059C10.511 16.1894 9.91052 16.0781 9.35819 16.0781ZM21.4922 16.0781C20.2674 16.0781 19.1555 16.3629 18.1509 16.9328C17.1448 17.5017 16.3483 18.2916 15.7606 19.2978C15.1731 20.3038 14.8813 21.3723 14.8813 22.5109C14.8813 24.0408 15.3888 25.4036 16.4119 26.5982C17.4355 27.792 18.6621 28.5358 20.0853 28.8217C20.4107 28.989 20.8763 29.4208 21.4856 30.1198C22.1724 30.9087 22.7533 31.4776 23.2312 31.8164C23.7084 32.1554 24.2238 32.4038 24.7683 32.5683C25.3133 32.7321 25.9026 32.8125 26.5398 32.8125C27.3115 32.8125 28.0024 32.6802 28.611 32.4076L28.4742 32.0735C28.1209 32.1992 27.7442 32.2598 27.3474 32.2598C26.8089 32.2598 26.2647 32.0846 25.7192 31.7329C25.1744 31.3802 24.4931 30.7074 23.6806 29.715C23.2986 29.2394 23.035 28.9394 22.886 28.8217C24.4431 28.5217 25.7236 27.777 26.7222 26.5853C27.7205 25.3941 28.2202 24.0346 28.2202 22.5109C28.2202 20.7018 27.5678 19.1814 26.2728 17.9418C24.9767 16.7021 23.3828 16.0781 21.4922 16.0781ZM29.0669 16.0781L29.0864 16.4701C29.9019 16.4701 30.3586 16.7071 30.4607 17.1835C30.4987 17.3539 30.5162 17.6686 30.5193 18.1217L30.5128 26.7909C30.506 27.4384 30.4125 27.8518 30.2327 28.0313C30.0527 28.2094 29.7484 28.321 29.3079 28.3654L29.2884 28.7574H37.4167L37.6251 26.7909H37.254C37.148 27.3266 36.9049 27.7104 36.518 27.9284C36.1298 28.148 35.4441 28.2562 34.4531 28.2562H33.6847C32.7932 28.2562 32.2774 27.9382 32.1411 27.2987C32.113 27.1721 32.1033 27.0364 32.102 26.8873L32.1346 18.1217C32.1344 17.4753 32.2172 17.0421 32.3886 16.83C32.5618 16.6187 32.8742 16.5005 33.3263 16.4701L33.307 16.0781H29.0669ZM21.6224 16.5537C23.0037 16.5537 24.1315 17.0905 25.0027 18.1731C25.8736 19.2562 26.3054 20.7406 26.3054 22.6202C26.3054 24.4013 25.8674 25.8275 24.9897 26.9002C24.112 27.9726 22.9438 28.5068 21.4922 28.5068C20.0976 28.5068 18.9666 27.9559 18.0988 26.8488C17.2318 25.7416 16.8027 24.3043 16.8027 22.5367C16.8027 20.7203 17.237 19.2663 18.1118 18.1796C18.9862 17.094 20.1569 16.5537 21.6224 16.5537ZM40.3151 18.4173C40.1169 18.4173 39.9656 18.4834 39.8528 18.6166C39.7369 18.7492 39.7015 18.9098 39.7418 19.105C39.7809 19.2942 39.8892 19.4601 40.0611 19.5998C40.2321 19.7393 40.4165 19.8119 40.6147 19.8119C40.8063 19.8119 40.9526 19.7393 41.0576 19.5998C41.1626 19.4601 41.1945 19.2942 41.1554 19.105C41.1147 18.9098 41.0104 18.7492 40.8493 18.6166C40.6862 18.4834 40.5067 18.4173 40.3151 18.4173ZM45.6753 19.7476C45.3383 21.0263 44.6083 21.7182 43.4871 21.8298L43.4999 22.1961H44.8091L44.7832 26.5275C44.7851 27.268 44.8081 27.761 44.8613 28.012C44.9902 28.6127 45.3879 28.9181 46.053 28.9181C47.0157 28.9181 48.0257 28.3395 49.0816 27.183L48.7627 26.913C48.0001 27.6747 47.3258 28.057 46.7371 28.057C46.3752 28.057 46.1508 27.8516 46.0661 27.4464C46.0428 27.348 46.0336 27.2331 46.0336 27.0994L46.0468 22.1961H48.046L48.0267 21.6113H46.053V19.7476H45.6753ZM53.4063 21.3799C52.288 21.3799 51.3781 21.9156 50.671 22.9801C49.9672 24.0464 49.7493 25.2277 50.0263 26.5275C50.189 27.2888 50.5132 27.8788 51.0097 28.2947C51.5051 28.7104 52.1338 28.9181 52.8852 28.9181C53.5851 28.9181 54.5596 28.7433 54.9695 28.3911C55.3806 28.0392 55.7596 27.469 56.1094 26.6881L55.8292 26.3989C55.2713 27.412 54.1449 27.922 53.2957 27.922C52.1279 27.922 51.4129 27.2899 51.1465 26.0327C51.1117 25.8722 51.0858 25.6997 51.0681 25.5185C52.4573 25.3015 53.51 24.9173 54.2207 24.3618C54.9304 23.806 55.6434 23.2169 55.5102 22.5945C55.4308 22.2247 55.2362 21.9339 54.937 21.7141C54.6338 21.4944 53.8463 21.3799 53.4063 21.3799ZM41.1813 21.4249L38.7716 21.9712V22.3953L39.605 22.2925C40.0089 22.2925 40.2465 22.4729 40.3216 22.8323C40.3469 22.9526 40.3627 23.1215 40.3673 23.3336L40.341 27.2215C40.3344 27.7595 40.2737 28.0723 40.1523 28.1662C40.0296 28.2603 39.7061 28.3076 39.1817 28.3076L39.1686 28.6739H42.9919L42.9854 28.3076C42.4541 28.3076 42.1099 28.2662 41.9564 28.1855C41.8054 28.1053 41.7017 27.9592 41.6568 27.7356C41.622 27.5745 41.6069 27.2968 41.6046 26.913L41.6177 21.4249H41.1813ZM52.7943 22.1447C53.027 22.1447 53.2517 22.2333 53.4781 22.4081C53.7013 22.5823 53.8374 22.7761 53.8817 22.9865C54.0999 24.0202 53.171 24.7348 51.0812 25.1329C51.0215 24.3792 51.154 23.695 51.4917 23.0765C51.8267 22.4585 52.2631 22.1447 52.7943 22.1447Z" fill="#003B57"/>
</g>
</g>
<defs>
<linearGradient id="paint0_linear_363_2864" x1="48.4358" y1="1.71901" x2="48.4358" y2="79.3285" gradientUnits="userSpaceOnUse">
<stop stop-color="#97D9F6"/>
<stop offset="0.920245" stop-color="#0F80CC"/>
<stop offset="1" stop-color="#0F80CC"/>
</linearGradient>
<clipPath id="clip0_363_2864">
<rect width="84" height="84" fill="white"/>
</clipPath>
</defs>
</svg>
