<svg width="84" height="84" viewBox="0 0 84 84" fill="none" xmlns="http://www.w3.org/2000/svg">
<g clip-path="url(#clip0_363_2854)">
<path d="M64.3125 0H19.6875C8.81439 0 0 8.81439 0 19.6875V64.3125C0 75.1856 8.81439 84 19.6875 84H64.3125C75.1856 84 84 75.1856 84 64.3125V19.6875C84 8.81439 75.1856 0 64.3125 0Z" fill="#242938"/>
<path d="M70.8888 55.064V24.5249L44.4216 9.25536V20.9959L54.8051 26.968C55.2123 27.1716 55.2123 27.7824 54.8051 27.9859L42.4535 35.1117C42.1142 35.3154 41.6394 35.3154 41.2998 35.1117L28.9486 27.9181C28.5414 27.7145 28.5414 27.1037 28.9486 26.9001L39.332 20.928V9.1875L12.8647 24.457V55.064L23.0444 49.2276V37.2156C23.0444 36.8084 23.5195 36.4691 23.9267 36.7405L36.2778 43.8664C36.6175 44.0698 36.8888 44.477 36.8888 44.8842V59.1357C36.8888 59.5429 36.4137 59.8822 36.0065 59.6108L25.6233 53.6386L15.4436 59.475L41.9108 74.7446L68.378 59.475L58.1982 53.6386L47.815 59.6108C47.4758 59.8142 46.9327 59.5429 46.9327 59.1357V44.8842C46.9327 44.477 47.1362 44.0698 47.5434 43.8664L59.895 36.7405C60.2342 36.5367 60.777 36.8084 60.777 37.2156V49.2276L70.8888 55.064Z" fill="#CCCCCC"/>
<path d="M41.8428 74.8125L68.31 59.5428L58.1302 53.7065L47.7471 59.6787C47.4078 59.8824 46.8647 59.6107 46.8647 59.2035V44.9521C46.8647 44.5449 47.0685 44.1377 47.4757 43.9343L59.827 36.8084C60.1663 36.6049 60.7093 36.8763 60.7093 37.2835V49.2955L70.8887 55.1318V24.5249L41.8428 41.2873V74.8125Z" fill="#A6A6A6"/>
<path d="M44.354 9.1875V20.928L54.7372 26.9001C55.1444 27.1037 55.1444 27.7145 54.7372 27.9181L42.3859 35.0438C42.0466 35.2475 41.5715 35.2475 41.2322 35.0438L28.9486 27.9181C28.5414 27.7145 28.5414 27.1037 28.9486 26.9001L39.332 20.928V9.1875L12.8647 24.457L41.9108 41.2194L70.9567 24.457L44.354 9.1875Z" fill="white"/>
<path d="M35.8706 59.6108L25.4875 53.6389L15.3079 59.4752L41.7749 74.7445V41.2197L12.7969 24.5249V55.1318L22.9765 49.2955V37.2835C22.9765 36.8763 23.4516 36.537 23.8588 36.8084L36.2102 43.9343C36.5495 44.1377 36.8209 44.5449 36.8209 44.9521V59.2035C36.753 59.5428 36.2778 59.8145 35.8706 59.6108Z" fill="#CCCCCC"/>
</g>
<defs>
<clipPath id="clip0_363_2854">
<rect width="84" height="84" fill="white"/>
</clipPath>
</defs>
</svg>
